# xmcd
#
# Track frame offsets:
#	150
#	20162
#	39700
#	60625
#	76625
#	96587
#	108175
#	132350
#	151700
#	183025
#	203950
#	220100
#	252450
#	270025
#	287512
#	303787
#	322312
#
# Disc length: 4553
#
# Revision: 1
# Processed by: cddbd v1.5.1PL0 Copyright (c) Steve Scherf et al.
# Submitted via: ExactAudioCopy v0.95a5
# Normalized: r0:TDELIM( - )
#
DISCID=e511c711
DTITLE=Various Artist - Zärtliche Stunden
DYEAR=1900
DGENRE=Pop
TTITLE0=Ten Sharp - You
TTITLE1=Tina Arena - Chains
TTITLE2=Trey Lorenz - Just Be Close To You
TTITLE3=Luther Vandross - So Amazing
TTITLE4=Nicole Mccloud - So Lost Without Your Love
TTITLE5=Erma Franklin - Pice Of My Heart
TTITLE6=Sophie B. Hawkins - Damn I Wish I Was Your Lover
TTITLE7=Bad English - When I See You Smile
TTITLE8=Bonnie Tyler - Total Eclipse Of The Heart
TTITLE9=Meat Loaf - Heaven Can Wait
TTITLE10=Beverley Craven - Promise Me
TTITLE11=The Pasadenas - Cry My Tears (Posthumously Yours)
TTITLE12=Des'ree - Feel So High
TTITLE13=Cock Robin - The Promise You Made
TTITLE14=Indigo Girls - I Don't Wanna Talk About It
TTITLE15=Bill Withers - Lovely Day
TTITLE16=Die Fantastischen Vier - Tag Am Meer
EXTD=
EXTT0=
EXTT1=
EXTT2=
EXTT3=
EXTT4=
EXTT5=
EXTT6=
EXTT7=
EXTT8=
EXTT9=
EXTT10=
EXTT11=
EXTT12=
EXTT13=
EXTT14=
EXTT15=
EXTT16=
PLAYORDER=
